<?xml version="1.0" encoding="UTF-8"?>
<svg width="122px" height="40px" viewBox="0 0 122 40" version="1.1"
	xmlns="http://www.w3.org/2000/svg"
	xmlns:xlink="http://www.w3.org/1999/xlink">
	<g stroke="none" stroke-width="1" fill="none" fill-rule="evenodd">
		<g transform="translate(0.000000, 0.000000)">
			<path d="M49.9083648,25.0491526 C49.9083648,27.0003235 49.3818722,28.4949354 48.3281403,29.5327394 C47.2744085,30.5711655 45.802693,31.0898186 43.9143627,31.0898186 C42.9311866,31.0898186 42.0647323,30.9336502 41.3152487,30.6216869 C40.5661384,30.3095991 39.9414651,29.8805406 39.4422241,29.3338892 C38.942361,28.7877355 38.567557,28.1477564 38.3183098,27.4138274 C38.1073892,26.7948782 37.9855655,26.1315049 37.9525897,25.4235833 C37.9423859,25.2037032 38.1234416,25.025634 38.3435705,25.025634 L41.3366518,25.025634 C41.5598917,25.025634 41.7346011,25.2093029 41.7526445,25.4316717 C41.8036636,26.0639357 41.9778753,26.5998855 42.2752795,27.0390234 C42.6341556,27.5701202 43.1804337,27.8352953 43.9143627,27.8352953 C44.6480428,27.8352953 45.2021604,27.5894079 45.5765911,27.0978821 C45.9513951,26.6058585 46.1386727,25.9234464 46.1386727,25.0491526 L46.1386727,14.7014758 C46.1386727,14.4806003 46.3177374,14.3015356 46.5387374,14.3015356 L49.5084246,14.3015356 C49.7293001,14.3015356 49.9083648,14.4806003 49.9083648,14.7014758 L49.9083648,25.0491526" fill="#171572"></path>
			<path d="M57.1435008,27.9289963 C57.5491652,27.9289963 57.9197384,27.8549563 58.2557181,27.7066275 C58.5910756,27.5582987 58.876285,27.351609 59.1103508,27.0860606 C59.3444167,26.8208855 59.5279612,26.5163883 59.6607354,26.1726936 C59.7927629,25.8297454 59.8594611,25.4549414 59.8594611,25.0491526 C59.8594611,24.6591673 59.7927629,24.2878475 59.6607354,23.9365621 C59.5279612,23.5856499 59.3444167,23.2811528 59.1103508,23.0235684 C58.876285,22.7659839 58.5910756,22.5592942 58.2557181,22.4030014 C57.9197384,22.2474553 57.5491652,22.1689356 57.1435008,22.1689356 C56.7373387,22.1689356 56.3704987,22.2474553 56.0428563,22.4030014 C55.7150894,22.5592942 55.4343597,22.7659839 55.1999205,23.0235684 C54.9658547,23.2811528 54.7864166,23.5856499 54.6613575,23.9365621 C54.536174,24.2878475 54.4739555,24.6591673 54.4739555,25.0491526 C54.4739555,25.4549414 54.536174,25.8297454 54.6613575,26.1726936 C54.7864166,26.5163883 54.9658547,26.8208855 55.1999205,27.0860606 C55.4343597,27.351609 55.7150894,27.5582987 56.0428563,27.7066275 C56.3704987,27.8549563 56.7373387,27.9289963 57.1435008,27.9289963 Z M57.1435008,30.9961176 C56.175506,30.9961176 55.3054431,30.8360917 54.5326898,30.5162888 C53.7600609,30.1964859 53.1045272,29.7670541 52.5659642,29.2284911 C52.0272768,28.6898036 51.613524,28.0616461 51.3248303,27.343645 C51.0357634,26.6258928 50.8916654,25.8608546 50.8916654,25.0491526 C50.8916654,24.2373261 51.0357634,23.4726612 51.3248303,22.7542869 C51.613524,22.0365347 52.0272768,21.4080038 52.5659642,20.8694408 C53.1045272,20.3307533 53.7600609,19.9016948 54.5326898,19.5816431 C55.3054431,19.2618402 56.175506,19.1016899 57.1435008,19.1016899 C58.1268014,19.1016899 59.0049528,19.2618402 59.7775816,19.5816431 C60.5502105,19.9016948 61.2059931,20.3307533 61.7443072,20.8694408 C62.2829946,21.4080038 62.6961252,22.0365347 62.9854411,22.7542869 C63.2741347,23.4726612 63.418606,24.2373261 63.418606,25.0491526 C63.418606,25.8608546 63.2741347,26.6258928 62.9854411,27.343645 C62.6961252,28.0616461 62.2829946,28.6898036 61.7443072,29.2284911 C61.2059931,29.7670541 60.5502105,30.1964859 59.7775816,30.5162888 C59.0049528,30.8360917 58.1268014,30.9961176 57.1435008,30.9961176 L57.1435008,30.9961176 Z" fill="#171572"></path>
			<path d="M70.8173766,27.9289963 C71.2073619,27.9289963 71.5668601,27.8510988 71.894627,27.6949304 C72.2223938,27.5388865 72.5033724,27.3319479 72.7374383,27.0743635 C72.9718774,26.8167791 73.1550486,26.5125308 73.2878228,26.1612454 C73.4202237,25.8100844 73.4869219,25.4393868 73.4869219,25.0491526 C73.4869219,24.6591673 73.4202237,24.2919539 73.2878228,23.9483836 C73.1550486,23.6054354 72.9718774,23.3008138 72.7374383,23.0353899 C72.5033724,22.7700903 72.2223938,22.5592942 71.894627,22.4030014 C71.5668601,22.2474553 71.2073619,22.1689356 70.8173766,22.1689356 C70.4114633,22.1689356 70.0408902,22.2474553 69.7051593,22.4030014 C69.3694285,22.5592942 69.0849657,22.7700903 68.8508999,23.0353899 C68.6164607,23.3008138 68.4329162,23.6054354 68.3005153,23.9483836 C68.1674923,24.2919539 68.1014163,24.6591673 68.1014163,25.0491526 C68.1014163,25.4393868 68.1674923,25.8100844 68.3005153,26.1612454 C68.4329162,26.5125308 68.6164607,26.8167791 68.8508999,27.0743635 C69.0849657,27.3319479 69.3694285,27.5388865 69.7051593,27.6949304 C70.0408902,27.8510988 70.4114633,27.9289963 70.8173766,27.9289963 Z M68.1014163,30.291929 C68.1014163,30.5128046 67.9223515,30.6918693 67.7013516,30.6918693 L64.9190664,30.6918693 C64.6981909,30.6918693 64.5190017,30.5128046 64.5190017,30.291929 L64.5190017,14.7014758 C64.5190017,14.4806003 64.6981909,14.3015356 64.9190664,14.3015356 L67.7013516,14.3015356 C67.9223515,14.3015356 68.1014163,14.4806003 68.1014163,14.7014758 L68.1014163,20.7214853 C68.1014163,20.8073468 68.2132851,20.8370872 68.262811,20.7670292 C68.376173,20.60663 68.5096938,20.4494662 68.6634979,20.295911 C68.8975637,20.0614718 69.1703294,19.8588885 69.482915,19.6870411 C69.7950028,19.5155671 70.1268761,19.3790598 70.4781615,19.2773948 C70.8294469,19.1757298 71.1920561,19.1249596 71.5668601,19.1249596 C72.3783133,19.1249596 73.1239394,19.2773948 73.8029916,19.5816431 C74.4819195,19.8861402 75.0634132,20.2996441 75.5474729,20.8227769 C76.0307859,21.3457853 76.4054655,21.9698365 76.6710138,22.6958015 C76.9365622,23.4215176 77.069212,24.205968 77.069212,25.0491526 C77.069212,25.8919639 76.9365622,26.6764142 76.6710138,27.4021304 C76.4054655,28.1280954 76.0307859,28.7523954 75.5474729,29.2751549 C75.0634132,29.7985366 74.4819195,30.2120405 73.8029916,30.5162888 C73.1239394,30.8207859 72.3783133,30.9729723 71.5668601,30.9729723 C71.1920561,30.9729723 70.8294469,30.922202 70.4781615,30.8207859 C70.1268761,30.7188721 69.7950028,30.5864712 69.482915,30.4225878 C69.1703294,30.2587044 68.8975637,30.0637117 68.6634979,29.8372365 C68.502352,29.6818148 68.3634804,29.5170603 68.2467586,29.342973 C68.2019613,29.276026 68.1014163,29.3189567 68.1014163,29.3995918 L68.1014163,30.291929 L68.1014163,30.291929 Z" fill="#171572"></path>
			<path d="M83.8359674,36.1006446 C82.9146365,36.1006446 82.1150048,36.0069436 81.4360769,35.8195416 C80.7570246,35.6325129 80.1675669,35.3356064 79.668326,34.9300664 C79.2155,34.5552624 78.8445536,34.090615 78.5562332,33.5367462 C78.3214208,33.0865334 78.1821758,32.566636 78.1382496,31.9773027 C78.1214506,31.7520719 78.2971556,31.5583236 78.5230086,31.5583236 L81.3052937,31.5583236 C81.5302757,31.5583236 81.7090915,31.7358951 81.7531422,31.9563973 C81.8428612,32.4042458 82.0493021,32.7591399 82.3725892,33.0217018 C82.7860931,33.3570593 83.2894405,33.5250492 83.8826313,33.5250492 C84.5695231,33.5250492 85.1078372,33.3570593 85.4985692,33.0217018 C85.8885545,32.6857221 86.083796,32.0809587 86.083796,31.2070382 L86.083796,29.1890446 C86.083796,29.1059207 85.9709317,29.0939748 85.9262589,29.1640328 C85.6226328,29.6406262 85.2109954,30.0171723 84.6906002,30.29392 C84.0738908,30.6216869 83.3364776,30.7855703 82.4779873,30.7855703 C81.728877,30.7855703 81.0764542,30.6607601 80.5227099,30.4108907 C79.9688412,30.1615191 79.5355518,29.8335034 79.2230907,29.4275902 C78.8642146,28.9905677 78.6298999,28.5025261 78.5208931,27.9642119 C78.4113886,27.4255245 78.3567608,26.7507031 78.3567608,25.9386277 L78.3567608,19.8060028 C78.3567608,19.5851273 78.5358256,19.4060626 78.7567011,19.4060626 L81.5162143,19.4060626 C81.7370898,19.4060626 81.9161546,19.5851273 81.9161546,19.8060028 L81.9161546,25.1895174 C81.9161546,26.0012195 82.060377,26.6608596 82.3493195,27.1680645 C82.6377643,27.6755183 83.1570396,27.9289963 83.9061499,27.9289963 C84.6556334,27.9289963 85.2057691,27.6714119 85.5569301,27.156243 C85.9082155,26.6411986 86.083796,25.946965 86.083796,25.0722979 L86.083796,19.8060028 C86.083796,19.5851273 86.2628607,19.4060626 86.4838607,19.4060626 L89.2665192,19.4060626 C89.4873947,19.4060626 89.6664595,19.5851273 89.6664595,19.8060028 L89.6664595,30.9729723 C89.6664595,31.8625719 89.5257213,32.6352007 89.2447427,33.2909833 C88.964013,33.946517 88.5809962,34.477116 88.0975587,34.8830293 C87.5976956,35.3044972 87.0086112,35.6124785 86.3296834,35.8080934 C85.6506311,36.003086 84.8195169,36.1006446 83.8359674,36.1006446" fill="#171572"></path>
			<path d="M91.4925713,14.7014758 C91.4925713,14.4806003 91.671636,14.3015356 91.8925116,14.3015356 L94.6749212,14.3015356 C94.8957967,14.3015356 95.0748614,14.4806003 95.0748614,14.7014758 L95.0748614,30.291929 C95.0748614,30.5128046 94.8957967,30.6918693 94.6749212,30.6918693 L91.8925116,30.6918693 C91.671636,30.6918693 91.4925713,30.5128046 91.4925713,30.291929 L91.4925713,14.7014758" fill="#171572"></path>
			<path d="M102.426595,27.9289963 C102.832135,27.9289963 103.203081,27.8549563 103.539061,27.7066275 C103.874418,27.5582987 104.159379,27.351609 104.39332,27.0860606 C104.62776,26.8208855 104.811055,26.5163883 104.943705,26.1726936 C105.076106,25.8297454 105.142928,25.4549414 105.142928,25.0491526 C105.142928,24.6591673 105.076106,24.2878475 104.943705,23.9365621 C104.811055,23.5856499 104.62776,23.2811528 104.39332,23.0235684 C104.159379,22.7659839 103.874418,22.5592942 103.539061,22.4030014 C103.203081,22.2474553 102.832135,22.1689356 102.426595,22.1689356 C102.020433,22.1689356 101.653842,22.2474553 101.326199,22.4030014 C100.998432,22.5592942 100.717329,22.7659839 100.483263,23.0235684 C100.248949,23.2811528 100.069511,23.5856499 99.9447004,23.9365621 C99.8195169,24.2878475 99.7572984,24.6591673 99.7572984,25.0491526 C99.7572984,25.4549414 99.8195169,25.8297454 99.9447004,26.1726936 C100.069511,26.5163883 100.248949,26.8208855 100.483263,27.0860606 C100.717329,27.351609 100.998432,27.5582987 101.326199,27.7066275 C101.653842,27.8549563 102.020433,27.9289963 102.426595,27.9289963 Z M102.426595,30.9961176 C101.4586,30.9961176 100.588786,30.8360917 99.8157838,30.5162888 C99.0434038,30.1964859 98.3876212,29.7670541 97.8493071,29.2284911 C97.3106196,28.6898036 96.8964935,28.0616461 96.6081732,27.343645 C96.3192307,26.6258928 96.1750083,25.8608546 96.1750083,25.0491526 C96.1750083,24.2373261 96.3192307,23.4726612 96.6081732,22.7542869 C96.8964935,22.0365347 97.3106196,21.4080038 97.8493071,20.8694408 C98.3876212,20.3307533 99.0434038,19.9016948 99.8157838,19.5816431 C100.588786,19.2618402 101.4586,19.1016899 102.426595,19.1016899 C103.410144,19.1016899 104.287922,19.2618402 105.060924,19.5816431 C105.833304,19.9016948 106.489087,20.3307533 107.027401,20.8694408 C107.565964,21.4080038 107.979468,22.0365347 108.268535,22.7542869 C108.557229,23.4726612 108.7017,24.2373261 108.7017,25.0491526 C108.7017,25.8608546 108.557229,26.6258928 108.268535,27.343645 C107.979468,28.0616461 107.565964,28.6898036 107.027401,29.2284911 C106.489087,29.7670541 105.833304,30.1964859 105.060924,30.5162888 C104.287922,30.8360917 103.410144,30.9961176 102.426595,30.9961176 L102.426595,30.9961176 Z" fill="#171572"></path>
			<path d="M109.802469,19.8060028 C109.802469,19.5851273 109.981534,19.4060626 110.202409,19.4060626 L112.984694,19.4060626 C113.205694,19.4060626 113.384759,19.5851273 113.384759,19.8060028 L113.384759,20.7450039 C113.384759,20.8282522 113.497872,20.8398248 113.54267,20.7696424 C113.848162,20.2920535 114.267888,19.9118987 114.801225,19.6286802 C115.433489,19.2929494 116.19442,19.1249596 117.083896,19.1249596 C117.817576,19.1249596 118.44984,19.2383216 118.980563,19.4644235 C119.511162,19.6911476 119.93263,20.0072173 120.245216,20.4127573 C120.603967,20.8500286 120.84214,21.353376 120.95911,21.9231726 C121.076579,22.4932182 121.135064,23.1839675 121.135064,23.9954207 L121.135064,30.291929 C121.135064,30.5128046 120.955875,30.6918693 120.734999,30.6918693 L117.952714,30.6918693 C117.731839,30.6918693 117.552649,30.5128046 117.552649,30.291929 L117.552649,24.9084144 C117.552649,24.0969613 117.407929,23.4374456 117.119485,22.9298674 C116.830169,22.4226625 116.311516,22.1689356 115.562156,22.1689356 C114.828476,22.1689356 114.282198,22.42652 113.923322,22.9416889 C113.563824,23.4567333 113.384759,24.1515891 113.384759,25.025634 L113.384759,30.291929 C113.384759,30.5128046 113.205694,30.6918693 112.984694,30.6918693 L110.202409,30.6918693 C109.981534,30.6918693 109.802469,30.5128046 109.802469,30.291929 L109.802469,19.8060028" fill="#171572"></path>
			<g fill="#0068FF">
				<path d="M26.4684305,13.6889326 L26.4697993,13.6833329 L26.4712926,13.6777333 C26.6932881,12.8114034 26.831413,11.6497847 26.88181,10.224982 L26.9726489,7.65971479 C24.7630225,3.14763197 20.1593541,0.102411588 14.8574701,0.00398198153 C14.7785771,0.00124436923 14.6995597,0 14.6206667,0 C14.5484932,0 14.4775642,0.00124436923 14.4052664,0.00261317538 C9.90226742,0.116348523 6.28762368,3.80329011 6.28762368,8.33304298 C6.28762368,8.40534083 6.28886805,8.47626988 6.29023686,8.54844329 C6.29160567,8.61937234 6.29421884,8.68893258 6.29820082,8.75849282 C6.52691589,14.803763 11.6395313,19.1873025 16.3691299,23.5763172 C16.5794283,23.5280356 16.7886067,23.4749011 16.9961675,23.4166646 C21.6941591,22.0976332 25.3237353,18.3702496 26.4684305,13.6889326"></path>
				<path d="M13.5075784,24.9747393 C13.3940919,24.9764814 13.280481,24.9776014 13.1672434,24.9825788 C13.0893459,24.9859386 12.9705086,24.9894229 12.8149625,24.9894229 C12.0939749,24.9894229 10.5821908,24.9136408 8.69037623,24.3929967 C6.87558814,23.8936313 4.45417006,22.7290262 3.04392641,22.7290262 C-1.98083653,22.7290262 0.730395143,30.0004977 0.730395143,30.0004977 C2.63054696,35.834474 8.11560208,40 14.5871931,40 C18.3424506,40 21.7832559,38.5980936 24.3838632,36.2809537 C26.5256715,34.370598 28.0975587,31.839551 28.8012495,28.9619472 C30.1632116,23.6548369 28.1042783,11.0233693 28.1042783,11.0233693 C28.0535081,10.7665314 27.9958938,10.5124312 27.9316843,10.2621886 C27.8822829,11.6602374 27.7471444,12.9311117 27.4889377,13.9384286 C26.2460618,19.0206814 22.3022824,23.0180931 17.280257,24.4280879 C16.0767031,24.765312 14.811304,24.9545805 13.5075784,24.9747393"></path>
			</g>
		</g>
	</g>
</svg>